<?xml version="1.0" encoding="iso-8859-1"?>
<!-- Generator: Adobe Illustrator 19.0.0, SVG Export Plug-In . SVG Version: 6.00 Build 0)  -->
<svg version="1.1" id="Capa_1" xmlns="http://www.w3.org/2000/svg" xmlns:xlink="http://www.w3.org/1999/xlink" x="0px" y="0px"
	 viewBox="0 0 512 512" style="enable-background:new 0 0 512 512;" xml:space="preserve">
<g>
	<g>
		<path d="M256,0c-82.347,0-149.333,66.987-149.333,149.333v96c0,5.888,4.779,10.667,10.667,10.667S128,251.221,128,245.333v-96
			c0-70.592,57.408-128,128-128s128,57.408,128,128V192h-21.333v-42.667c0-58.816-47.851-106.667-106.667-106.667
			S149.333,90.517,149.333,149.333v96c0,5.888,4.779,10.667,10.667,10.667s10.667-4.779,10.667-10.667v-96
			C170.667,102.272,208.939,64,256,64s85.333,38.272,85.333,85.333v53.333c0,5.888,4.779,10.667,10.667,10.667h42.667
			c5.888,0,10.667-4.779,10.667-10.667v-53.333C405.333,66.987,338.347,0,256,0z"/>
	</g>
</g>
<g>
	<g>
		<path d="M394.667,234.667H117.333c-17.643,0-32,14.357-32,32v192c0,29.397,23.936,53.333,53.333,53.333h234.667
			c29.397,0,53.333-23.936,53.333-53.333v-192C426.667,249.024,412.309,234.667,394.667,234.667z M405.333,458.667
			c0,17.643-14.357,32-32,32H138.667c-17.643,0-32-14.357-32-32v-192c0-5.888,4.779-10.667,10.667-10.667h277.333
			c5.888,0,10.667,4.779,10.667,10.667V458.667z"/>
	</g>
</g>
<g>
	<g>
		<path d="M284.8,372.693c8.811-8,13.867-19.221,13.867-31.36c0-23.531-19.136-42.667-42.667-42.667s-42.667,19.136-42.667,42.667
			c0,12.139,5.056,23.36,13.867,31.339l-13.312,39.936c-1.109,3.264-0.555,6.848,1.451,9.621c2.005,2.795,5.227,4.437,8.661,4.437
			h64c3.435,0,6.656-1.643,8.661-4.416c1.984-2.795,2.539-6.379,1.451-9.621L284.8,372.693z M262.123,372.139l11.072,33.195h-34.389
			l11.072-33.195c1.579-4.757-0.363-9.984-4.672-12.544c-6.592-3.925-10.539-10.752-10.539-18.261
			c0-11.755,9.579-21.333,21.333-21.333s21.333,9.579,21.333,21.333c0,7.509-3.947,14.336-10.539,18.261
			C262.485,362.155,260.523,367.381,262.123,372.139z"/>
	</g>
</g>
<g>
</g>
<g>
</g>
<g>
</g>
<g>
</g>
<g>
</g>
<g>
</g>
<g>
</g>
<g>
</g>
<g>
</g>
<g>
</g>
<g>
</g>
<g>
</g>
<g>
</g>
<g>
</g>
<g>
</g>
</svg>
