<?xml version="1.0" standalone="no"?>
<!DOCTYPE svg PUBLIC "-//W3C//DTD SVG 20010904//EN"
 "http://www.w3.org/TR/2001/REC-SVG-20010904/DTD/svg10.dtd">
<svg version="1.0" xmlns="http://www.w3.org/2000/svg"
 width="152.000000pt" height="94.000000pt" viewBox="0 0 152.000000 94.000000"
 preserveAspectRatio="xMidYMid meet">

<g transform="translate(0.000000,94.000000) scale(0.100000,-0.100000)"
fill="#000000" stroke="none">
<path d="M257 769 c-67 -55 -67 -57 -67 -369 l0 -280 575 0 575 0 0 275 c0
220 -3 282 -14 304 -20 38 -92 101 -116 101 -24 0 -96 -63 -116 -101 -8 -16
-14 -53 -14 -84 l0 -56 -29 21 c-28 19 -103 50 -122 50 -5 0 -9 -11 -9 -25 l0
-25 -53 35 c-74 49 -111 53 -173 22 -28 -14 -56 -33 -63 -41 -19 -23 -31 -20
-31 9 0 33 -14 32 -94 -8 l-66 -34 0 61 c0 69 -29 121 -85 156 -43 27 -54 25
-98 -11z m112 -30 c22 -23 41 -45 41 -49 0 -4 -22 -29 -48 -56 l-48 -49 -52
53 -52 53 45 44 c24 25 51 45 59 45 7 0 32 -19 55 -41z m898 -4 l45 -44 -51
-50 -51 -50 -51 50 -51 50 45 44 c24 25 50 45 57 45 7 0 33 -20 57 -45z
m-1003 -127 l36 -42 0 -213 0 -213 -45 0 -45 0 0 255 c0 149 4 255 9 255 5 0
26 -19 45 -42z m156 -213 l0 -255 -50 0 -50 0 0 209 0 208 41 47 c22 25 45 46
50 46 5 0 9 -107 9 -255z m717 240 c12 -8 31 -30 42 -49 20 -31 21 -48 21
-240 l0 -206 -50 0 -50 0 0 255 c0 140 3 255 8 255 4 0 17 -7 29 -15z m183
-240 l0 -255 -50 0 -50 0 0 206 c0 192 1 209 21 240 20 33 55 64 71 64 5 0 8
-115 8 -255z m-460 197 l55 -37 3 -208 2 -207 -160 0 -160 0 0 198 0 198 33
31 c48 46 107 74 142 68 17 -3 55 -22 85 -43z m-280 -222 l0 -230 -70 0 -70 0
0 194 0 195 33 25 c33 26 72 44 95 45 9 1 12 -51 12 -229z m418 215 c20 -9 47
-26 59 -37 22 -21 23 -27 23 -215 l0 -193 -70 0 -70 0 0 230 c0 151 4 230 10
230 6 0 27 -7 48 -15z"/>
<!-- <path d="M742 453 c-7 -10 -10 -12 -7 -5 8 15 -11 16 -21 1 -3 -6 -1 -15 5
-19 9 -5 8 -10 -4 -20 -8 -7 -15 -16 -15 -21 0 -5 9 -1 20 9 12 9 22 15 24 12
2 -3 13 3 24 14 12 10 27 16 34 13 8 -4 7 -6 -4 -6 -16 -1 -16 -3 2 -21 26
-26 33 -25 25 3 -7 24 -41 57 -59 57 -6 0 -17 -8 -24 -17z"/> -->
</g>
</svg>
