<svg width="100%" height="100%" viewBox="0 0 60 60" fill="none" xmlns="http://www.w3.org/2000/svg">
<path d="M30 1C13.984 1 1 13.984 1 30C1 37.032 3.504 43.478 7.667 48.499C9.606 40.602 15.628 34.326 23.361 31.994C20.131 29.843 18 26.172 18 22C18 15.373 23.373 10 30 10C36.627 10 42 15.373 42 22C42 26.172 39.869 29.843 36.638 31.994C44.371 34.326 50.393 40.602 52.332 48.499C56.496 43.478 59 37.032 59 30C59 13.984 46.016 1 30 1Z" fill="#f5f5f5"/>
<path d="M36.638 31.994C39.869 29.843 42 26.172 42 22C42 15.373 36.627 10 30 10C23.373 10 18 15.373 18 22C18 26.172 20.131 29.843 23.362 31.994C15.629 34.326 9.607 40.602 7.668 48.499C7.668 48.499 7.668 48.5 7.669 48.5C7.985 48.881 8.313 49.253 8.648 49.618C8.729 49.707 8.814 49.792 8.897 49.879C9.155 50.153 9.416 50.423 9.684 50.687C9.795 50.796 9.908 50.901 10.021 51.008C10.269 51.244 10.52 51.477 10.776 51.704C10.903 51.816 11.032 51.927 11.16 52.037C11.411 52.252 11.665 52.463 11.924 52.669C12.06 52.778 12.197 52.885 12.334 52.992C12.596 53.194 12.862 53.39 13.131 53.582C13.27 53.681 13.407 53.782 13.548 53.879C13.832 54.075 14.121 54.263 14.412 54.449C14.543 54.532 14.671 54.618 14.803 54.7C15.139 54.907 15.481 55.105 15.826 55.299C15.917 55.35 16.006 55.405 16.098 55.455C16.544 55.699 16.997 55.933 17.457 56.154C17.468 56.159 17.48 56.164 17.491 56.169C17.93 56.379 18.376 56.578 18.827 56.766C18.967 56.825 19.11 56.877 19.251 56.933C19.577 57.063 19.903 57.191 20.235 57.309C20.411 57.372 20.589 57.429 20.766 57.489C21.068 57.591 21.372 57.69 21.678 57.781C21.872 57.839 22.067 57.893 22.263 57.947C22.559 58.029 22.857 58.107 23.158 58.18C23.361 58.229 23.565 58.276 23.77 58.321C24.071 58.387 24.373 58.447 24.677 58.503C24.883 58.541 25.088 58.58 25.296 58.613C25.61 58.664 25.926 58.707 26.243 58.748C26.443 58.774 26.642 58.803 26.843 58.824C27.193 58.862 27.546 58.889 27.899 58.914C28.07 58.926 28.239 58.944 28.41 58.953C28.937 58.983 29.466 59 30 59C30.534 59 31.063 58.983 31.59 58.955C31.761 58.946 31.931 58.928 32.101 58.916C32.455 58.891 32.808 58.864 33.157 58.826C33.358 58.804 33.557 58.776 33.757 58.75C34.074 58.709 34.39 58.666 34.704 58.615C34.911 58.581 35.117 58.543 35.323 58.505C35.627 58.449 35.93 58.389 36.23 58.323C36.435 58.278 36.639 58.231 36.842 58.182C37.142 58.109 37.44 58.031 37.737 57.949C37.932 57.895 38.128 57.841 38.322 57.783C38.629 57.691 38.932 57.592 39.234 57.491C39.411 57.431 39.59 57.374 39.765 57.311C40.096 57.192 40.423 57.065 40.749 56.935C40.89 56.879 41.033 56.826 41.173 56.768C41.622 56.58 42.066 56.383 42.503 56.173C42.516 56.167 42.53 56.161 42.543 56.155C43.003 55.934 43.456 55.7 43.902 55.456C43.994 55.406 44.083 55.351 44.174 55.3C44.519 55.106 44.861 54.908 45.197 54.701C45.329 54.62 45.458 54.534 45.588 54.45C45.879 54.264 46.168 54.075 46.452 53.88C46.592 53.783 46.73 53.683 46.869 53.583C47.138 53.39 47.404 53.194 47.666 52.993C47.804 52.887 47.94 52.779 48.076 52.67C48.334 52.464 48.589 52.253 48.84 52.038C48.969 51.928 49.098 51.817 49.224 51.705C49.48 51.478 49.731 51.245 49.979 51.009C50.091 50.902 50.205 50.796 50.316 50.688C50.584 50.424 50.846 50.154 51.103 49.88C51.185 49.792 51.27 49.707 51.352 49.619C51.687 49.254 52.015 48.882 52.331 48.501C52.331 48.501 52.331 48.5 52.332 48.5C50.394 40.602 44.372 34.325 36.638 31.994Z" fill="#C6C3BD"/>
<path d="M30 0C13.458 0 0 13.458 0 30C0 37.245 2.582 43.898 6.874 49.088C6.885 49.103 6.886 49.122 6.898 49.136C9.997 52.873 13.889 55.738 18.226 57.589C18.276 57.61 18.325 57.633 18.375 57.654C18.726 57.802 19.081 57.939 19.437 58.073C19.577 58.126 19.717 58.18 19.859 58.231C20.166 58.341 20.475 58.445 20.786 58.545C20.985 58.609 21.184 58.672 21.385 58.732C21.66 58.814 21.936 58.893 22.214 58.968C22.458 59.034 22.704 59.095 22.95 59.154C23.199 59.214 23.449 59.274 23.7 59.327C23.98 59.387 24.263 59.44 24.547 59.492C24.775 59.534 25.002 59.578 25.232 59.615C25.547 59.666 25.864 59.706 26.182 59.747C26.387 59.773 26.591 59.803 26.797 59.825C27.157 59.863 27.52 59.89 27.884 59.915C28.053 59.927 28.221 59.945 28.391 59.954C28.922 59.984 29.459 60 30 60C30.541 60 31.078 59.984 31.611 59.956C31.781 59.947 31.949 59.929 32.118 59.917C32.482 59.891 32.845 59.865 33.205 59.827C33.411 59.805 33.615 59.775 33.82 59.749C34.138 59.708 34.455 59.668 34.77 59.617C34.999 59.58 35.227 59.536 35.455 59.494C35.738 59.442 36.021 59.389 36.302 59.329C36.553 59.275 36.802 59.216 37.052 59.156C37.298 59.096 37.544 59.035 37.788 58.97C38.066 58.896 38.342 58.816 38.617 58.734C38.818 58.674 39.017 58.611 39.216 58.547C39.527 58.447 39.836 58.343 40.143 58.233C40.284 58.182 40.424 58.128 40.565 58.075C40.922 57.941 41.276 57.803 41.627 57.656C41.677 57.635 41.726 57.612 41.776 57.591C46.112 55.74 50.005 52.875 53.104 49.138C53.116 49.124 53.117 49.104 53.128 49.09C57.418 43.898 60 37.245 60 30C60 13.458 46.542 0 30 0ZM35.984 31.217C35.59 31.473 35.18 31.702 34.759 31.902C34.709 31.926 34.66 31.951 34.61 31.974C31.714 33.291 28.286 33.291 25.39 31.974C25.34 31.951 25.29 31.926 25.241 31.902C24.819 31.702 24.41 31.473 24.016 31.217C21.001 29.253 19 25.858 19 22C19 15.935 23.935 11 30 11C36.065 11 41 15.935 41 22C41 25.858 38.999 29.253 35.984 31.217ZM23.644 33.329C23.728 33.376 23.811 33.426 23.896 33.471C24.194 33.629 24.496 33.777 24.805 33.91C25.042 34.014 25.287 34.102 25.531 34.192C25.579 34.209 25.627 34.228 25.675 34.245C27.031 34.725 28.482 35 30 35C31.518 35 32.969 34.725 34.324 34.245C34.372 34.228 34.42 34.209 34.468 34.192C34.712 34.102 34.957 34.014 35.194 33.91C35.503 33.777 35.805 33.629 36.103 33.471C36.188 33.425 36.271 33.376 36.355 33.329C36.498 33.249 36.644 33.173 36.784 33.087C43.824 35.371 49.295 41.109 51.229 48.226C48.728 51.135 45.646 53.531 42.157 55.22C42.142 55.227 42.128 55.235 42.113 55.242C41.756 55.414 41.393 55.576 41.027 55.734C40.944 55.769 40.862 55.805 40.779 55.84C40.459 55.974 40.135 56.101 39.809 56.223C39.673 56.274 39.537 56.324 39.4 56.372C39.111 56.475 38.821 56.574 38.528 56.668C38.346 56.726 38.163 56.781 37.98 56.835C37.72 56.913 37.459 56.988 37.195 57.058C36.973 57.117 36.749 57.171 36.525 57.224C36.29 57.28 36.056 57.337 35.819 57.387C35.56 57.442 35.299 57.489 35.039 57.536C34.828 57.575 34.618 57.616 34.405 57.65C34.112 57.696 33.816 57.733 33.521 57.77C33.334 57.794 33.148 57.822 32.959 57.842C32.622 57.878 32.282 57.901 31.943 57.925C31.792 57.935 31.642 57.952 31.489 57.96C30.994 57.986 30.498 58 30 58C29.502 58 29.006 57.986 28.512 57.96C28.36 57.952 28.21 57.936 28.058 57.925C27.718 57.902 27.379 57.878 27.042 57.842C26.853 57.822 26.667 57.794 26.48 57.77C26.185 57.733 25.889 57.696 25.596 57.65C25.383 57.616 25.173 57.575 24.962 57.536C24.701 57.489 24.44 57.441 24.182 57.387C23.945 57.337 23.71 57.28 23.476 57.224C23.252 57.17 23.028 57.117 22.806 57.058C22.543 56.988 22.281 56.912 22.021 56.835C21.838 56.781 21.655 56.726 21.473 56.668C21.18 56.574 20.889 56.475 20.601 56.372C20.464 56.323 20.328 56.273 20.192 56.223C19.866 56.101 19.542 55.974 19.222 55.84C19.139 55.806 19.058 55.77 18.975 55.735C18.609 55.578 18.246 55.415 17.888 55.243C17.873 55.236 17.859 55.229 17.844 55.221C14.355 53.533 11.273 51.137 8.772 48.227C10.705 41.109 16.177 35.371 23.217 33.088C23.356 33.173 23.501 33.249 23.644 33.329ZM52.729 46.323C50.462 39.629 45.29 34.219 38.682 31.649C41.325 29.268 43 25.83 43 22C43 14.832 37.168 9 30 9C22.832 9 17 14.832 17 22C17 25.83 18.675 29.268 21.319 31.649C14.711 34.22 9.539 39.629 7.272 46.323C3.959 41.724 2 36.088 2 30C2 14.561 14.561 2 30 2C45.439 2 58 14.561 58 30C58 36.088 56.041 41.724 52.729 46.323Z" fill="#111"/>
</svg>
